<svg width="20" height="20" viewBox="0 0 20 20" fill="none" xmlns="http://www.w3.org/2000/svg">
<g clip-path="url(#clip0_2004_533)">
<path d="M18.8051 10.2302C18.8051 9.55044 18.75 8.86699 18.6324 8.19824H9.20007V12.0491H14.6015C14.3774 13.291 13.6572 14.3897 12.6026 15.0878V17.5864H15.8251C17.7175 15.8448 18.8051 13.2726 18.8051 10.2302Z" fill="#4285F4"/>
<path d="M9.19992 20.0008C11.897 20.0008 14.1714 19.1152 15.8286 17.5867L12.6061 15.088C11.7096 15.698 10.5521 16.0434 9.2036 16.0434C6.59474 16.0434 4.38272 14.2833 3.58904 11.917H0.263672V14.4928C1.96127 17.8696 5.41892 20.0008 9.19992 20.0008Z" fill="#34A853"/>
<path d="M3.58552 11.9168C3.16664 10.6748 3.16664 9.32995 3.58552 8.08799V5.51221H0.263825C-1.15451 8.33785 -1.15451 11.6669 0.263825 14.4925L3.58552 11.9168Z" fill="#FBBC04"/>
<path d="M9.19992 3.95805C10.6256 3.936 12.0035 4.47247 13.036 5.45722L15.8911 2.60218C14.0833 0.904587 11.6838 -0.0287217 9.19992 0.000673888C5.41892 0.000673888 1.96126 2.13185 0.263672 5.51234L3.58537 8.08813C4.37537 5.71811 6.59106 3.95805 9.19992 3.95805Z" fill="#EA4335"/>
</g>
<defs>
<clipPath id="clip0_2004_533">
<rect width="20" height="20" fill="white"/>
</clipPath>
</defs>
</svg>
